<svg id="Layer_1" viewBox="0 0 24 24" xmlns="http://www.w3.org/2000/svg" data-name="Layer 1" width="10px" height="10px">
    <path d="m4.5 19c0 .28.22.5.5.5h6.5v-7h-7z" />
    <path d="m19 4.5h-6.5v7h7v-6.5c0-.28-.22-.5-.5-.5z" />
    <path d="m4.5 5v6.5h7v-7h-6.5c-.28 0-.5.22-.5.5z" />
    <path
        d="m19 2.5h-14c-1.38 0-2.5 1.12-2.5 2.5v14c0 1.38 1.12 2.5 2.5 2.5h14c1.38 0 2.5-1.12 2.5-2.5v-14c0-1.38-1.12-2.5-2.5-2.5zm1.5 16.5c0 .83-.67 1.5-1.5 1.5h-14c-.83 0-1.5-.67-1.5-1.5v-14c0-.83.67-1.5 1.5-1.5h14c.83 0 1.5.67 1.5 1.5z" />
    <path d="m12.5 19.5h6.5c.28 0 .5-.22.5-.5v-6.5h-7z" />
</svg>