<svg id="Capa_1" enable-background="new 0 0 512.002 512.002" height="512" viewBox="0 0 512.002 512.002" width="512" xmlns="http://www.w3.org/2000/svg"><g><path d="m511.731 318.141-25.998-223.242c-2.527-21.693-22.232-37.285-43.923-34.76l-382.7 44.568c-10.176 1.185-19.379 6.18-25.913 14.066-2.643 3.189-2.2 7.917.989 10.56 3.19 2.643 7.917 2.2 10.561-.99 4.059-4.898 9.776-8.001 16.098-8.737l382.701-44.567c6.527-.761 12.962 1.066 18.117 5.146 5.154 4.079 8.411 9.921 9.171 16.45l25.998 223.242c1.57 13.478-8.118 25.719-21.595 27.289l-10.734 1.25v-8.133c0-4.142-3.358-7.5-7.5-7.5s-7.5 3.358-7.5 7.5v72.241c0 13.568-11.039 24.607-24.607 24.607h-385.289c-13.568 0-24.607-11.039-24.607-24.607v-224.751c0-13.568 11.039-24.607 24.607-24.607h385.288c13.568 0 24.607 11.039 24.607 24.607v120.402c0 4.142 3.358 7.5 7.5 7.5s7.5-3.358 7.5-7.5v-120.402c0-21.839-17.768-39.607-39.607-39.607h-385.288c-21.839-.001-39.607 17.767-39.607 39.607v224.751c0 21.839 17.768 39.607 39.607 39.607h385.288c21.839 0 39.607-17.768 39.607-39.607v-49.007l12.469-1.452c10.508-1.224 19.911-6.467 26.477-14.763s9.507-18.652 8.283-29.161z"/><path d="m55.661 355.809h64.214c4.142 0 7.5-3.358 7.5-7.5s-3.358-7.5-7.5-7.5h-64.214c-4.142 0-7.5 3.358-7.5 7.5s3.358 7.5 7.5 7.5z"/><path d="m55.661 395.943h160.536c4.142 0 7.5-3.358 7.5-7.5s-3.358-7.5-7.5-7.5h-160.536c-4.142 0-7.5 3.358-7.5 7.5s3.358 7.5 7.5 7.5z"/><path d="m216.197 340.809h-64.214c-4.142 0-7.5 3.358-7.5 7.5s3.358 7.5 7.5 7.5h64.214c4.142 0 7.5-3.358 7.5-7.5s-3.358-7.5-7.5-7.5z"/><path d="m312.519 340.809h-64.214c-4.142 0-7.5 3.358-7.5 7.5s3.358 7.5 7.5 7.5h64.214c4.142 0 7.5-3.358 7.5-7.5s-3.358-7.5-7.5-7.5z"/><path d="m337.126 348.309c0 4.142 3.358 7.5 7.5 7.5h64.215c4.142 0 7.5-3.358 7.5-7.5s-3.358-7.5-7.5-7.5h-64.215c-4.142 0-7.5 3.358-7.5 7.5z"/><path d="m71.714 315.675h48.161c12.988 0 23.554-10.566 23.554-23.554v-32.107c0-12.987-10.566-23.553-23.554-23.553h-48.161c-12.987 0-23.553 10.566-23.553 23.553v32.107c0 12.988 10.566 23.554 23.553 23.554zm-8.553-55.661c0-4.716 3.837-8.553 8.553-8.553h48.161c4.716 0 8.554 3.837 8.554 8.553v32.107c0 4.716-3.837 8.554-8.554 8.554h-48.161c-4.716 0-8.553-3.837-8.553-8.554z"/><path d="m87.768 283.568h16.054c4.142 0 7.5-3.358 7.5-7.5s-3.358-7.5-7.5-7.5h-16.054c-4.142 0-7.5 3.358-7.5 7.5s3.358 7.5 7.5 7.5z"/><path d="m380.912 290.809c1.073.534 2.213.787 3.335.787 2.756 0 5.41-1.525 6.721-4.161 6.185-12.431 9.32-25.708 9.32-39.461 0-13.754-3.136-27.031-9.32-39.461-1.846-3.709-6.347-5.218-10.056-3.374-3.708 1.845-5.219 6.347-3.374 10.056 5.143 10.336 7.75 21.365 7.75 32.78s-2.607 22.443-7.75 32.78c-1.846 3.707-.335 8.209 3.374 10.054z"/><path d="m352.116 276.31c1.076.537 2.218.791 3.344.791 2.752 0 5.403-1.521 6.716-4.151 3.983-7.98 6.003-16.383 6.003-24.976s-2.02-16.996-6.003-24.976c-1.851-3.706-6.354-5.211-10.061-3.36-3.706 1.85-5.21 6.354-3.36 10.061 2.936 5.88 4.424 12.029 4.424 18.275s-1.488 12.395-4.424 18.275c-1.849 3.706-.344 8.211 3.361 10.061z"/><path d="m323.39 261.844c1.091.556 2.253.819 3.399.819 2.73 0 5.363-1.497 6.688-4.096 1.722-3.38 2.595-6.944 2.595-10.593s-.873-7.213-2.595-10.593c-1.882-3.69-6.398-5.157-10.088-3.277-3.69 1.881-5.158 6.397-3.277 10.088.637 1.25.96 2.523.96 3.783s-.323 2.532-.96 3.783c-1.88 3.689-.413 8.206 3.278 10.086z"/></g></svg>