<?xml version="1.0" encoding="iso-8859-1"?>
<!-- Generator: Adobe Illustrator 19.0.0, SVG Export Plug-In . SVG Version: 6.00 Build 0)  -->
<svg version="1.1" id="Capa_1" xmlns="http://www.w3.org/2000/svg" xmlns:xlink="http://www.w3.org/1999/xlink" x="0px" y="0px"
	 viewBox="0 0 512 512" style="enable-background:new 0 0 512 512;" xml:space="preserve">
<g>
	<g>
		<path d="M469.333,235.755v-22.421c0-57.045-22.165-110.656-62.421-150.891C366.656,22.165,313.067,0,256,0
			C138.368,0,42.667,95.701,42.667,213.333v22.421C18.347,240.704,0,262.251,0,288v85.333c0,29.419,23.936,53.333,53.333,53.333H96
			c5.888,0,10.667-4.779,10.667-10.667V245.333c0-5.888-4.779-10.667-10.667-10.667H64v-21.333c0-105.877,86.144-192,192-192
			c51.371,0,99.584,19.968,135.829,56.192S448,161.984,448,213.333v21.333h-32c-5.888,0-10.667,4.779-10.667,10.667V416
			c0,5.888,4.779,10.667,10.667,10.667h30.912c-4.949,24.32-26.496,42.667-52.245,42.667H320v-10.667
			c0-5.888-4.779-10.667-10.667-10.667H224c-17.643,0-32,14.357-32,32c0,17.643,14.357,32,32,32h85.333
			c5.888,0,10.667-4.779,10.667-10.667v-10.667h74.667c37.845,0,68.885-28.416,73.685-64.981
			C493.141,421.099,512,399.424,512,373.333V288C512,262.229,493.653,240.704,469.333,235.755z M85.333,256v149.333h-32
			c-17.643,0-32-14.357-32-32V288c0-17.643,14.357-32,32-32H85.333z M298.667,490.667H224c-5.888,0-10.667-4.8-10.667-10.667
			c0-5.867,4.779-10.667,10.667-10.667h74.667V490.667z M490.667,373.333c0,17.643-14.357,32-32,32h-32V256h32
			c17.643,0,32,14.357,32,32V373.333z"/>
	</g>
</g>
<g>
</g>
<g>
</g>
<g>
</g>
<g>
</g>
<g>
</g>
<g>
</g>
<g>
</g>
<g>
</g>
<g>
</g>
<g>
</g>
<g>
</g>
<g>
</g>
<g>
</g>
<g>
</g>
<g>
</g>
</svg>
