<svg height="20" viewBox="0 0 48 48" width="20" xmlns="http://www.w3.org/2000/svg" fill="#fff">
    <g id="_31_-_40" data-name="31 - 40">
        <g id="Language">
            <path
                d="m41 17h-18a5.006 5.006 0 0 0 -5 5v12a5.006 5.006 0 0 0 5 5h10.086l4.353 4.354a1.5 1.5 0 0 0 2.561-1.061v-3.293h1a5.006 5.006 0 0 0 5-5v-12a5.006 5.006 0 0 0 -5-5zm-4 9.5h-.559a8.973 8.973 0 0 1 -2.661 5.434 6.949 6.949 0 0 0 2.72.566 1.031 1.031 0 0 1 1.036 1 .97.97 0 0 1 -.965 1 9.127 9.127 0 0 1 -4.551-1.23 8.932 8.932 0 0 1 -4.52 1.23 1.031 1.031 0 0 1 -1.036-1 .97.97 0 0 1 .965-1 7.128 7.128 0 0 0 2.811-.574 8.855 8.855 0 0 1 -1.875-2.573 1 1 0 1 1 1.806-.857 6.974 6.974 0 0 0 1.823 2.352 6.96 6.96 0 0 0 2.426-4.348h-7.42a1 1 0 0 1 0-2h4v-2a1 1 0 0 1 2 0v2h4a1 1 0 0 1 0 2z" />
            <path d="m16 14.417-1.629 3.583h2.893c.072-.1.149-.2.227-.3z" />
            <path
                d="m25 6h-18a5.006 5.006 0 0 0 -5 5v12a5.006 5.006 0 0 0 5 5h1v3.293a1.5 1.5 0 0 0 2.561 1.061l4.353-4.354h1.086v-6a6.956 6.956 0 0 1 .3-2h-2.838l-1.552 3.414a1 1 0 0 1 -1.82-.828l5-11a1 1 0 0 1 1.82 0l2.117 4.657a6.952 6.952 0 0 1 3.973-1.243h7v-4a5.006 5.006 0 0 0 -5-5z" />
        </g>
    </g>
</svg>