<svg id="Layer_1" viewBox="0 0 512 512" xmlns="http://www.w3.org/2000/svg" data-name="Layer 1" width="30px"
    height="30px">
    <g transform="scale(-1, 1) translate(-512, 0)">
        <path
            d="m255.857 9.286c-136.196 0-247 110.803-247 247s110.804 247 247 247 247-110.804 247-247-110.803-247-247-247zm-143.086 247c0-17.481 14.222-31.703 31.703-31.703h141.878c3.866 0 7-3.134 7-7v-36.812c0-4.495 2.446-8.265 6.544-10.085 4.099-1.819 8.537-1.105 11.871 1.909l83.513 75.515c2.362 2.136 3.663 5.039 3.663 8.176s-1.301 6.04-3.663 8.176l-83.513 75.515c-3.334 3.015-7.772 3.73-11.871 1.91-4.098-1.82-6.544-5.59-6.544-10.085v-36.812c0-3.866-3.134-7-7-7h-141.878c-17.481 0-31.703-14.222-31.703-31.703z" />
    </g>
</svg>