<svg id="Layer_2_00000021098983867826733900000016938124465809623220_" enable-background="new 0 0 512 512" height="20" viewBox="0 0 512 512" width="20" xmlns="http://www.w3.org/2000/svg"><g id="Icon"><path id="_51" d="m406 161h-300c-13.8 0-25-11.2-25-25 0-13.8 11.2-25 25-25h300c13.8 0 25 11.2 25 25 0 13.8-11.2 25-25 25zm0 70h-300c-13.8 0-25 11.2-25 25 0 13.8 11.2 25 25 25h300c13.8 0 25-11.2 25-25 0-13.8-11.2-25-25-25zm0 120h-300c-13.8 0-25 11.2-25 25 0 13.8 11.2 25 25 25h300c13.8 0 25-11.2 25-25 0-13.8-11.2-25-25-25z"/></g></svg>