<svg id="Glyph" enable-background="new 0 0 32 32" height="22" viewBox="0 0 32 32" width="22" xmlns="http://www.w3.org/2000/svg"><path id="XMLID_180_" d="m27.748 11.336c-.19-.214-.462-.336-.748-.336h-5v-3c0-3.309-2.691-6-6-6s-6 2.691-6 6v3h-5c-.286 0-.558.122-.748.336s-.279.499-.246.782l1.703 14.323c.226 2.029 1.935 3.559 3.976 3.559h12.63c2.042 0 3.75-1.53 3.975-3.551l1.704-14.331c.033-.284-.056-.568-.246-.782zm-15.748-3.336c0-2.206 1.794-4 4-4s4 1.794 4 4v3h-8zm-1 7c-.552 0-1-.448-1-1s.448-1 1-1 1 .448 1 1-.448 1-1 1zm10 0c-.552 0-1-.448-1-1s.448-1 1-1 1 .448 1 1-.448 1-1 1z"/></svg>